<svg width="56" height="56" viewBox="0 0 56 56" fill="none" xmlns="http://www.w3.org/2000/svg">
<rect x="12" y="2" width="32" height="32" rx="8" fill="#2563EB"/>
<g filter="url(#filter0_dd_1_401)">
<rect x="12" y="2" width="32" height="32" rx="8" fill="white" fill-opacity="0.01" shape-rendering="crispEdges"/>
</g>
<path d="M28 26.3333C26.8472 26.3333 25.7639 26.1146 24.75 25.6771C23.7361 25.2396 22.8542 24.6458 22.1042 23.8958C21.3542 23.1458 20.7604 22.2639 20.3229 21.25C19.8854 20.2361 19.6667 19.1528 19.6667 18C19.6667 16.8472 19.8854 15.7639 20.3229 14.75C20.7604 13.7361 21.3542 12.8542 22.1042 12.1042C22.8542 11.3542 23.7361 10.7604 24.75 10.3229C25.7639 9.88542 26.8472 9.66667 28 9.66667H28.8333V16.5625C29.0833 16.7153 29.2847 16.9132 29.4375 17.1563C29.5903 17.3993 29.6667 17.6806 29.6667 18C29.6667 18.4583 29.5035 18.8507 29.1771 19.1771C28.8507 19.5035 28.4583 19.6667 28 19.6667C27.5417 19.6667 27.1493 19.5035 26.8229 19.1771C26.4965 18.8507 26.3333 18.4583 26.3333 18C26.3333 17.6806 26.4097 17.3958 26.5625 17.1458C26.7153 16.8958 26.9167 16.7014 27.1667 16.5625V14.7708C26.4444 14.9653 25.8472 15.3576 25.375 15.9479C24.9028 16.5382 24.6667 17.2222 24.6667 18C24.6667 18.9167 24.9931 19.7014 25.6458 20.3542C26.2986 21.0069 27.0833 21.3333 28 21.3333C28.9167 21.3333 29.7014 21.0069 30.3542 20.3542C31.0069 19.7014 31.3333 18.9167 31.3333 18C31.3333 17.5 31.2326 17.0382 31.0313 16.6146C30.8299 16.191 30.5556 15.8194 30.2083 15.5L31.3958 14.3125C31.8819 14.7708 32.2708 15.316 32.5625 15.9479C32.8542 16.5799 33 17.2639 33 18C33 19.3889 32.5139 20.5694 31.5417 21.5417C30.5694 22.5139 29.3889 23 28 23C26.6111 23 25.4306 22.5139 24.4583 21.5417C23.4861 20.5694 23 19.3889 23 18C23 16.75 23.3958 15.6632 24.1875 14.7396C24.9792 13.816 25.9722 13.2569 27.1667 13.0625V11.375C25.5139 11.5833 24.1285 12.3125 23.0104 13.5625C21.8924 14.8125 21.3333 16.2917 21.3333 18C21.3333 19.8611 21.9792 21.4375 23.2708 22.7292C24.5625 24.0208 26.1389 24.6667 28 24.6667C29.8611 24.6667 31.4375 24.0208 32.7292 22.7292C34.0208 21.4375 34.6667 19.8611 34.6667 18C34.6667 17.0417 34.4792 16.1458 34.1042 15.3125C33.7292 14.4792 33.2153 13.7569 32.5625 13.1458L33.75 11.9583C34.5417 12.7222 35.1701 13.6215 35.6354 14.6563C36.1007 15.691 36.3333 16.8056 36.3333 18C36.3333 19.1528 36.1146 20.2361 35.6771 21.25C35.2396 22.2639 34.6458 23.1458 33.8958 23.8958C33.1458 24.6458 32.2639 25.2396 31.25 25.6771C30.2361 26.1146 29.1528 26.3333 28 26.3333V26.3333" fill="white"/>
<defs>
<filter id="filter0_dd_1_401" x="0" y="0" width="56" height="56" filterUnits="userSpaceOnUse" color-interpolation-filters="sRGB">
<feFlood flood-opacity="0" result="BackgroundImageFix"/>
<feColorMatrix in="SourceAlpha" type="matrix" values="0 0 0 0 0 0 0 0 0 0 0 0 0 0 0 0 0 0 127 0" result="hardAlpha"/>
<feMorphology radius="4" operator="erode" in="SourceAlpha" result="effect1_dropShadow_1_401"/>
<feOffset dy="4"/>
<feGaussianBlur stdDeviation="3"/>
<feComposite in2="hardAlpha" operator="out"/>
<feColorMatrix type="matrix" values="0 0 0 0 0.145098 0 0 0 0 0.388235 0 0 0 0 0.921569 0 0 0 0.2 0"/>
<feBlend mode="normal" in2="BackgroundImageFix" result="effect1_dropShadow_1_401"/>
<feColorMatrix in="SourceAlpha" type="matrix" values="0 0 0 0 0 0 0 0 0 0 0 0 0 0 0 0 0 0 127 0" result="hardAlpha"/>
<feMorphology radius="3" operator="erode" in="SourceAlpha" result="effect2_dropShadow_1_401"/>
<feOffset dy="10"/>
<feGaussianBlur stdDeviation="7.5"/>
<feComposite in2="hardAlpha" operator="out"/>
<feColorMatrix type="matrix" values="0 0 0 0 0.145098 0 0 0 0 0.388235 0 0 0 0 0.921569 0 0 0 0.2 0"/>
<feBlend mode="normal" in2="effect1_dropShadow_1_401" result="effect2_dropShadow_1_401"/>
<feBlend mode="normal" in="SourceGraphic" in2="effect2_dropShadow_1_401" result="shape"/>
</filter>
</defs>
</svg>
